<?xml version="1.0" encoding="UTF-8" standalone="no"?>
<svg
   xmlns:dc="http://purl.org/dc/elements/1.1/"
   xmlns:cc="http://creativecommons.org/ns#"
   xmlns:rdf="http://www.w3.org/1999/02/22-rdf-syntax-ns#"
   xmlns:svg="http://www.w3.org/2000/svg"
   xmlns="http://www.w3.org/2000/svg"
   xmlns:sodipodi="http://sodipodi.sourceforge.net/DTD/sodipodi-0.dtd"
   xmlns:inkscape="http://www.inkscape.org/namespaces/inkscape"
   width="1587.3188"
   height="603.13647"
   viewBox="0 0 1269.8551 482.50918"
   version="1.1"
   id="svg2"
   inkscape:version="0.47 r22583"
   sodipodi:docname="NewPicture656.svg">
  <metadata
     id="metadata28">
    <rdf:RDF>
      <cc:Work
         rdf:about="">
        <dc:format>image/svg+xml</dc:format>
        <dc:type
           rdf:resource="http://purl.org/dc/dcmitype/StillImage" />
      </cc:Work>
    </rdf:RDF>
  </metadata>
  <defs
     id="defs26">
    <inkscape:perspective
       sodipodi:type="inkscape:persp3d"
       inkscape:vp_x="0 : 323.125 : 1"
       inkscape:vp_y="0 : 1000 : 0"
       inkscape:vp_z="1628.75 : 323.125 : 1"
       inkscape:persp3d-origin="814.375 : 215.41667 : 1"
       id="perspective30" />
  </defs>
  <sodipodi:namedview
     pagecolor="#ffffff"
     bordercolor="#666666"
     borderopacity="1"
     objecttolerance="10"
     gridtolerance="10"
     guidetolerance="10"
     inkscape:pageopacity="0"
     inkscape:pageshadow="2"
     inkscape:window-width="1680"
     inkscape:window-height="988"
     id="namedview24"
     showgrid="false"
     inkscape:zoom="0.29866157"
     inkscape:cx="796.28747"
     inkscape:cy="311.20603"
     inkscape:window-x="-8"
     inkscape:window-y="-8"
     inkscape:window-maximized="1"
     inkscape:current-layer="svg2" />
  <g
     id="#ffffffff"
     transform="translate(-14.470026,-24.955618)" />
  <g
     id="#231f20ff"
     transform="translate(-14.470026,-24.955618)">
    <path
       d="m 255.96,25.82 c 13.07,-0.27 26.14,-1.46 39.21,-0.49 27.78,0.57 55.7,3.89 82.33,12.07 28.51,8.68 55.68,24.08 74.72,47.38 19.83,23.87 29.66,54.63 32.23,85.23 1.2,10.28 0.86,20.64 0.91,30.97 0,100.67 0,201.35 0,302.02 -38.32,0 -76.64,0.01 -114.96,-0.01 -0.01,-13.62 0.05,-27.23 -0.03,-40.85 -13.75,13.89 -29.48,26.26 -47.64,33.83 -16.64,7.09 -34.71,10.11 -52.67,11.18 -19.01,0.67 -38.14,0.49 -56.92,-2.74 -25.15,-4.04 -49.87,-13.41 -69.69,-29.69 -22.93,-18.38 -37.49,-45.59 -44.19,-73.89 -5.85,-25.75 -6.6,-52.97 0,-78.65 6.9,-27.3 23.38,-52.12 46.26,-68.61 29.47,-21.52 66.52,-29.69 102.45,-30.73 39.89,-0.02 79.78,0.01 119.67,-0.01 -0.23,-16.32 1.05,-32.89 -2.7,-48.92 -2.75,-12.29 -8.99,-24.1 -18.94,-32.04 -8.02,-6.51 -17.76,-10.52 -27.72,-12.98 -16.44,-4.04 -33.49,-4.25 -50.32,-3.7 -18.62,0.77 -37.78,4.63 -53.41,15.3 -9.68,6.43 -17.98,14.67 -25.57,23.42 C 163.76,139.53 138.75,114.93 113.63,90.44 133.36,68.41 157.39,49.55 185.34,39.21 207.87,30.6 232,27.24 255.96,25.82 m 4.93,278.42 c -13.79,1.5 -27.82,5.93 -38.15,15.56 -10.47,9.63 -15.18,24.26 -14.67,38.25 -0.12,14.74 5.76,30 17.64,39.18 13.81,10.98 32.07,13.88 49.24,14.19 15.85,-0.14 32.09,-0.29 47.3,-5.34 11.12,-3.63 20.99,-10.41 29.28,-18.57 6.48,-6.59 10.48,-15.22 12.61,-24.13 4.73,-19.64 3.24,-40 3.5,-60.02 -28.22,-0.01 -56.43,0 -84.65,0 -7.38,-0.07 -14.76,0.15 -22.1,0.88 z"
       id="path6"
       style="fill:#231f20" />
    <path
       d="M 1006.61,73.42 C 1037.15,41.26 1081.91,24 1126.03,25 c 25.92,-0.24 52.08,5.11 75.39,16.62 29.99,14.95 53.52,41.38 67.2,71.75 10.04,22.51 14.16,47.2 15.26,71.68 0.69,23.99 0.35,48 0.43,72 -0.01,82.08 0.01,164.16 -0.01,246.25 -39.43,0.02 -78.87,0 -118.3,0.01 -0.01,-93.43 0,-186.86 0,-280.29 0.21,-14.22 -0.96,-28.68 -5.59,-42.21 -4.23,-12.73 -11.82,-24.48 -22.3,-32.93 -11.05,-9.07 -24.97,-14.25 -39.08,-15.91 -15.6,-1.84 -31.78,0.19 -46.17,6.62 -13.42,5.99 -24.93,16.3 -32.04,29.2 -8.99,15.78 -11.59,34.29 -11.52,52.21 0.01,94.43 0.01,188.86 0,283.3 -39.39,0 -78.77,0.04 -118.15,-0.02 0.01,-157.7 -0.05,-315.4 0.03,-473.11 38.46,-0.05 76.92,-0.04 115.38,0 0.09,14.42 0,28.83 0.05,43.25 z"
       id="path8"
       style="fill:#231f20" />
    <path
       d="m 516.41,503.18 c -0.02,-157.52 0.01,-315.04 -0.01,-472.56 59.87,0.05 119.74,0.01 179.61,0.02 36.23,0.47 73.3,9.15 103.42,29.98 15.18,10.54 28.19,24.07 38.87,39.13 13,18.31 21.34,39.68 25.39,61.72 6.61,35.77 4.19,72.29 4.48,108.46 -0.08,33.71 1.72,67.75 -4.28,101.11 -3.96,22.52 -12.48,44.33 -25.72,63.02 -10.29,14.44 -22.66,27.52 -37.15,37.81 -31.2,22.29 -70.18,30.95 -108.02,31.24 -58.86,0.15 -117.73,0 -176.59,0.07 m 116.2,-369.01 c -0.02,88.41 -0.02,176.81 0,265.22 12.13,0.03 24.26,0 36.4,0.01 14.15,-0.01 28.75,0.86 42.27,-4.13 15.77,-5.3 28.05,-18.54 34.17,-33.76 5.04,-14.94 4.94,-30.92 5.95,-46.48 0.57,-17.67 0.46,-35.36 0.61,-53.04 -0.39,-16.65 0.15,-33.34 -1.04,-49.97 -0.34,-10.77 -1.16,-21.58 -3.36,-32.15 -2.52,-12.99 -10.52,-24.5 -20.59,-32.84 -12.26,-9.94 -28.58,-13.09 -44.01,-12.87 -16.8,0.02 -33.6,0 -50.4,0.01 z"
       id="path10"
       style="fill:#231f20" />
  </g>
  <g
     id="#005e96ff"
     transform="translate(-14.470026,-24.955618)">
    <path
       d="m 38.15,31.17 c 7.19,-1.37 14.97,-0.45 21.3,3.39 9.22,5.31 15.3,15.77 14.93,26.47 0,11.13 -6.96,21.76 -16.96,26.52 -8.26,3.98 -18.4,3.86 -26.56,-0.33 C 22.06,82.83 15.64,73.82 14.71,64 14.47,59.7 14.46,55.28 15.93,51.18 19.09,41.17 27.91,33.34 38.15,31.17 z"
       id="path13"
       style="fill:#005e96" />
  </g>
  <g
     id="#ea851cff"
     transform="translate(-14.470026,-24.955618)">
    <path
       d="m 38.17,102.2 c 14.12,-3.28 29.62,5.25 34.39,18.92 5.39,13.71 -1.17,30.67 -14.43,37.1 -9.31,4.78 -21.2,4.31 -29.97,-1.48 -11.64,-7.16 -16.63,-22.7 -11.94,-35.43 3.39,-9.6 11.98,-17.08 21.95,-19.11 z"
       id="path16"
       style="fill:#ea851c" />
  </g>
  <g
     id="#8bb837ff"
     transform="translate(-14.470026,-24.955618)">
    <path
       d="m 38.17,173.21 c 12.91,-2.95 27.23,3.83 33.01,15.76 5.51,10.53 3.87,24.26 -3.97,33.19 -7.48,8.92 -20.31,12.46 -31.4,9.15 C 23.92,227.94 14.72,216.44 14.57,204 c -1.18,-14.27 9.59,-28.12 23.6,-30.79 z"
       id="path19"
       style="fill:#8bb837" />
  </g>
  <g
     id="#d7181eff"
     transform="translate(-14.470026,-24.955618)">
    <path
       d="m 36.41,244.72 c 13.51,-4.03 29.13,3.04 35,15.84 6.52,12.81 2.01,29.9 -10.03,37.78 -8.39,5.86 -19.89,6.82 -29.19,2.61 -9.22,-4.01 -16.06,-13.01 -17.4,-22.98 -0.32,-4.66 -0.45,-9.51 1.25,-13.94 3.01,-9.3 10.94,-16.78 20.37,-19.31 z"
       id="path22"
       style="fill:#d7181e" />
  </g>
</svg>
